<svg width="229" height="104" viewBox="0 0 229 104" fill="none" xmlns="http://www.w3.org/2000/svg">
<rect width="199" height="93" fill="white" transform="translate(15 11)"/>
<g filter="url(#filter0_d)">
<path d="M15 39.5C15 23.7599 27.7599 11 43.5 11H185.5C201.24 11 214 23.7599 214 39.5C214 55.2401 201.24 68 185.5 68H43.5C27.7599 68 15 55.2401 15 39.5Z" fill="white"/>
<path d="M17.5 39.5C17.5 25.1406 29.1406 13.5 43.5 13.5H185.5C199.859 13.5 211.5 25.1406 211.5 39.5C211.5 53.8594 199.859 65.5 185.5 65.5H43.5C29.1406 65.5 17.5 53.8594 17.5 39.5Z" stroke="#A5E243" stroke-opacity="0.77" stroke-width="5"/>
</g>
<path d="M114.5 104L123.593 90.5H105.407L114.5 104Z" fill="#A5E243" fill-opacity="0.77"/>
<path d="M114.5 98L125.325 81.5H103.675L114.5 98Z" fill="#50B83F"/>
<defs>
<filter id="filter0_d" x="0" y="0" width="229" height="87" filterUnits="userSpaceOnUse" color-interpolation-filters="sRGB">
<feFlood flood-opacity="0" result="BackgroundImageFix"/>
<feColorMatrix in="SourceAlpha" type="matrix" values="0 0 0 0 0 0 0 0 0 0 0 0 0 0 0 0 0 0 127 0"/>
<feOffset dy="4"/>
<feGaussianBlur stdDeviation="7.5"/>
<feColorMatrix type="matrix" values="0 0 0 0 0.594061 0 0 0 0 1 0 0 0 0 0.275109 0 0 0 0.77 0"/>
<feBlend mode="normal" in2="BackgroundImageFix" result="effect1_dropShadow"/>
<feBlend mode="normal" in="SourceGraphic" in2="effect1_dropShadow" result="shape"/>
</filter>
</defs>
</svg>
