<svg width="17" height="17" viewBox="0 0 17 17" fill="none" xmlns="http://www.w3.org/2000/svg">
<path d="M13 1C10.7907 1 9 2.87624 9 5.1906C9 7.50512 12.7693 13.1577 13 12.9966C13.2353 12.8323 17 7.50512 17 5.1906C17 2.87624 15.2091 1 13 1ZM13 7.09961C11.8364 7.09961 10.8931 6.11139 10.8931 4.89227C10.8931 3.67323 11.8364 2.68501 13 2.68501C14.1636 2.68501 15.1067 3.6733 15.1067 4.89235C15.1069 6.11155 14.1636 7.09961 13 7.09961Z" fill="#4CAF50"/>
<path d="M5.79545 0C2.59455 0 0 2.658 0 5.93669C0 9.21559 5.46116 17.2235 5.79545 16.9952C6.13636 16.7624 11.5909 9.21559 11.5909 5.93669C11.5909 2.658 8.99614 0 5.79545 0ZM5.79545 8.64112C4.10956 8.64112 2.74278 7.24114 2.74278 5.51405C2.74278 3.78707 4.10956 2.38709 5.79545 2.38709C7.48135 2.38709 8.8478 3.78718 8.8478 5.51416C8.84802 7.24136 7.48135 8.64112 5.79545 8.64112Z" fill="#438944"/>
</svg>
