<svg width="16" height="17" viewBox="0 0 16 17" fill="none" xmlns="http://www.w3.org/2000/svg">
<path d="M1.04396 9.30811H7.41882V16.9999H1.04396V9.30811Z" fill="#97FF46" fill-opacity="0.77"/>
<path d="M8.58131 9.30811H14.9562V16.9999H8.58131V9.30811Z" fill="#97FF46" fill-opacity="0.77"/>
<path d="M3.03004 3.13544C2.85762 2.83412 2.75948 2.48884 2.75948 2.12205C2.75944 0.951934 3.75756 0 4.98437 0C5.89177 0 6.82023 0.44718 7.53156 1.22689C7.70761 1.41983 7.8644 1.62719 8 1.84314C8.1356 1.62719 8.29239 1.41983 8.46844 1.22689C9.17977 0.44718 10.1082 0 11.0156 0C12.2424 0 13.2406 0.951967 13.2406 2.12205C13.2406 2.48881 13.1425 2.83412 12.97 3.13544H16V8.19955H8.58124V3.13544H7.4188V8.19955H0V3.13544H3.03004ZM11.0156 3.13544C11.6015 3.13544 12.0781 2.68082 12.0781 2.12205C12.0781 1.56327 11.6015 1.10869 11.0156 1.10869C9.96083 1.10869 8.95798 2.13775 8.66614 3.1354H11.0156V3.13544ZM4.98437 3.13544H7.33385C7.04202 2.13775 6.03916 1.10872 4.98437 1.10872C4.39854 1.10872 3.92188 1.56334 3.92188 2.12208C3.92191 2.68085 4.39854 3.13544 4.98437 3.13544Z" fill="#97FF46" fill-opacity="0.77"/>
</svg>
