<svg width="51" height="51" viewBox="0 0 51 51" fill="none" xmlns="http://www.w3.org/2000/svg">
<g filter="url(#filter0_d)">
<path d="M35.9675 17.2669C35.9007 17.1054 35.7432 17 35.5685 17C18.8137 17 17 23.9454 17 26.9318C17 30.8061 19.9502 33.4091 24.341 33.4091C29.8865 33.4091 31.0481 28.1323 31.6717 25.2969C32.2778 22.4108 33.7424 19.7754 35.8733 17.7367C35.9967 17.6134 36.0339 17.4281 35.9675 17.2669Z" fill="#4CAF50"/>
<path d="M17.4318 35.9998C17.1933 35.9998 17 35.8065 17 35.568C17 33.0004 21.4521 24.7621 28.471 21.3612C28.6856 21.2572 28.9439 21.3469 29.0479 21.5615C29.1519 21.7762 29.0622 22.0344 28.8476 22.1384C21.7596 25.5731 17.8636 33.5497 17.8636 35.568C17.8636 35.8065 17.6703 35.9998 17.4318 35.9998Z" fill="#388E3C"/>
</g>
<g filter="url(#filter1_d)">
<circle cx="25.5" cy="25.5" r="20" stroke="#4CAF50" stroke-dasharray="2 2"/>
</g>
<defs>
<filter id="filter0_d" x="17" y="17" width="21" height="22.9998" filterUnits="userSpaceOnUse" color-interpolation-filters="sRGB">
<feFlood flood-opacity="0" result="BackgroundImageFix"/>
<feColorMatrix in="SourceAlpha" type="matrix" values="0 0 0 0 0 0 0 0 0 0 0 0 0 0 0 0 0 0 127 0"/>
<feOffset dx="2" dy="4"/>
<feColorMatrix type="matrix" values="0 0 0 0 0.594061 0 0 0 0 1 0 0 0 0 0.275109 0 0 0 0.77 0"/>
<feBlend mode="normal" in2="BackgroundImageFix" result="effect1_dropShadow"/>
<feBlend mode="normal" in="SourceGraphic" in2="effect1_dropShadow" result="shape"/>
</filter>
<filter id="filter1_d" x="0" y="0" width="51" height="51" filterUnits="userSpaceOnUse" color-interpolation-filters="sRGB">
<feFlood flood-opacity="0" result="BackgroundImageFix"/>
<feColorMatrix in="SourceAlpha" type="matrix" values="0 0 0 0 0 0 0 0 0 0 0 0 0 0 0 0 0 0 127 0"/>
<feOffset/>
<feGaussianBlur stdDeviation="2.5"/>
<feColorMatrix type="matrix" values="0 0 0 0 0.594061 0 0 0 0 1 0 0 0 0 0.275109 0 0 0 0.77 0"/>
<feBlend mode="normal" in2="BackgroundImageFix" result="effect1_dropShadow"/>
<feBlend mode="normal" in="SourceGraphic" in2="effect1_dropShadow" result="shape"/>
</filter>
</defs>
</svg>
