<svg width="24" height="23" viewBox="0 0 24 23" fill="none" xmlns="http://www.w3.org/2000/svg">
<path d="M23.3956 3.96215C23.1023 3.20703 22.7113 2.5674 22.0714 1.92777C21.4314 1.28814 20.7915 0.897257 20.0361 0.604093C19.3073 0.319814 18.4629 0.124371 17.2453 0.0710688C16.0188 0.0177664 15.6277 0 12.4992 0C9.37075 0 8.97968 0.00888266 7.75317 0.0710688C6.52666 0.124371 5.69121 0.319814 4.96242 0.604093C4.20696 0.897257 3.56704 1.28814 2.92712 1.92777C2.2872 2.5674 1.89614 3.20703 1.60284 3.96215C1.31843 4.69061 1.1229 5.53457 1.06958 6.75164C1.01625 7.9776 0.998474 8.36848 0.998474 11.4956C0.998474 14.6226 1.00736 15.0135 1.06958 16.2395C1.1229 17.4654 1.31843 18.3005 1.60284 19.029C1.89614 19.7841 2.2872 20.4237 2.92712 21.0633C3.56704 21.703 4.20696 22.0939 4.96242 22.387C5.69121 22.6713 6.53555 22.8667 7.75317 22.92C8.97968 22.9734 9.37075 22.9911 12.4992 22.9911C15.6277 22.9911 16.0188 22.9822 17.2453 22.92C18.4718 22.8667 19.3073 22.6713 20.0361 22.387C20.7915 22.0939 21.4314 21.703 22.0714 21.0633C22.7113 20.4237 23.1023 19.7841 23.3956 19.029C23.68 18.3005 23.8756 17.4565 23.9289 16.2395C23.9822 15.0135 24 14.6226 24 11.4956C24 8.36848 23.9911 7.9776 23.9289 6.75164C23.8756 5.52569 23.68 4.69061 23.3956 3.96215ZM21.858 16.1418C21.8047 17.2611 21.6181 17.8741 21.4581 18.2738C21.2537 18.8069 20.9959 19.1978 20.596 19.5975C20.196 19.9973 19.8139 20.246 19.2717 20.4592C18.8629 20.6192 18.2585 20.8057 17.1386 20.859C15.921 20.9123 15.5655 20.9301 12.4903 20.9301C9.41518 20.9301 9.05079 20.9212 7.84205 20.859C6.72219 20.8057 6.10894 20.6192 5.70899 20.4592C5.17572 20.2549 4.78466 19.9973 4.38471 19.5975C3.98476 19.1978 3.73591 18.8158 3.5226 18.2738C3.36262 17.8652 3.17598 17.2611 3.12265 16.1418C3.06932 14.9247 3.05155 14.5604 3.05155 11.4956C3.05155 8.43067 3.06044 8.05755 3.12265 6.84936C3.17598 5.73001 3.36262 5.11703 3.5226 4.71727C3.72702 4.18424 3.98476 3.79336 4.38471 3.39359C4.78466 2.99382 5.16683 2.74508 5.70899 2.53187C6.11782 2.37196 6.72219 2.1854 7.84205 2.1321C9.05967 2.07879 9.42407 2.06103 12.4903 2.06103C15.5566 2.06103 15.9299 2.06991 17.1386 2.1321C18.2585 2.1854 18.8718 2.37196 19.2717 2.53187C19.805 2.73619 20.196 2.99382 20.596 3.39359C20.9959 3.79336 21.2448 4.17536 21.4581 4.71727C21.6181 5.12592 21.8047 5.73001 21.858 6.84936C21.9114 8.06644 21.9292 8.43067 21.9292 11.4956C21.9292 14.5604 21.9114 14.9336 21.858 16.1418Z" fill="white"/>
<path d="M12.4904 5.58789C9.22857 5.58789 6.58002 8.23524 6.58002 11.4956C6.58002 14.7559 9.22857 17.4033 12.4904 17.4033C15.7522 17.4033 18.4007 14.7559 18.4007 11.4956C18.4007 8.23524 15.7522 5.58789 12.4904 5.58789ZM12.4904 15.3334C10.3751 15.3334 8.65087 13.6188 8.65087 11.4956C8.65087 9.38125 10.3662 7.6578 12.4904 7.6578C14.6146 7.6578 16.3299 9.37236 16.3299 11.4956C16.3299 13.6099 14.6057 15.3334 12.4904 15.3334Z" fill="white"/>
<path d="M18.6318 6.73394C19.3926 6.73394 20.0094 6.11744 20.0094 5.35696C20.0094 4.59648 19.3926 3.97998 18.6318 3.97998C17.871 3.97998 17.2542 4.59648 17.2542 5.35696C17.2542 6.11744 17.871 6.73394 18.6318 6.73394Z" fill="white"/>
</svg>
