<svg width="17" height="17" viewBox="0 0 17 17" fill="none" xmlns="http://www.w3.org/2000/svg">
<path d="M1.35398 0C0.606193 0 0 0.671567 0 1.5C0 2.32843 0.606193 3 1.35398 3H12.6C13.1523 3 13.6 2.55228 13.6 2V1C13.6 0.447715 13.1523 0 12.6 0H1.35398Z" fill="#4CAF50"/>
<path d="M12.4999 9C11.5625 9 10.9999 9.67287 10.9999 10.5C10.9999 11.3271 11.5625 12 12.4999 12L16 12C16.5523 12 17 11.5523 17 11V10C17 9.44772 16.5523 9 16 9H12.4999ZM13.4999 10.5C13.4999 10.7761 13.2761 11 12.9999 11H12.9666C12.6905 11 12.4666 10.7761 12.4666 10.5C12.4666 10.2239 12.6905 10 12.9666 10H12.9999C13.2761 10 13.4999 10.2239 13.4999 10.5Z" fill="#4CAF50"/>
<path d="M13.5137 8H16C16.5523 8 17 7.55228 17 7V5C17 4.44772 16.5571 4 16.0048 4C12.58 4 1.5 4 1.5 4C0.5 4 0 3.5 0 3C0 3.2775 0 13.5363 0 13.9599C0 15.6388 1.11489 17 2.49023 17H16C16.5523 17 17 16.5523 17 16V14C17 13.4477 16.5523 13 16 13H13.5137C11 13 10.2 12.1762 10.2 10.5C10.2 8.82377 11 8 13.5137 8Z" fill="#38893B"/>
</svg>
