<svg width="25" height="23" viewBox="0 0 25 23" fill="none" xmlns="http://www.w3.org/2000/svg">
<path d="M3.63638 0L2.75769 1.04553H22.0243L21.3285 0H3.63638Z" fill="#38893B"/>
<path d="M22.7573 2.52393H1.80534L0.00933842 22.171C-0.0273067 22.3881 0.0459835 22.6037 0.192564 22.748C0.339144 22.928 0.52237 23.0001 0.741846 23.0001H24.2578C24.4784 23.0001 24.6612 22.8915 24.8082 22.748C24.954 22.6037 25.0273 22.3873 24.9907 22.171L22.7565 2.52393H22.7573ZM18.7645 5.91258C18.7275 8.76062 18.1786 14.0964 12.5006 14.0964C6.78632 14.0964 6.27329 8.72417 6.16374 5.87651C6.01795 5.69618 5.90762 5.44372 5.90762 5.19164C5.90762 4.65065 6.38362 4.18218 6.93329 4.18218C7.48257 4.18218 7.95896 4.65065 7.95896 5.19164C7.95896 5.44372 7.84863 5.66011 7.70284 5.84044C7.77574 9.44588 8.54489 12.5824 12.4643 12.5824C16.3834 12.5824 17.1525 9.4102 17.2262 5.80476C17.0797 5.6605 17.0056 5.4441 17.0056 5.19203C17.0056 4.65104 17.4824 4.18257 18.032 4.18257C18.5813 4.18257 19.0577 4.65104 19.0577 5.19203C19.0577 5.47978 18.9482 5.73225 18.7645 5.91258Z" fill="#38893B"/>
</svg>
